<svg xmlns="http://www.w3.org/2000/svg" xmlns:xlink="http://www.w3.org/1999/xlink" width="800" zoomAndPan="magnify" viewBox="0 0 600 299.999988" height="400" preserveAspectRatio="xMidYMid meet" version="1.0"><defs><g/></defs><g fill="#010101" fill-opacity="1"><g transform="translate(0.000012, 98.221497)"><g><path d="M 1.804688 0 L 59.535156 0 C 73.875 0 80.101562 -8.296875 80.101562 -18.671875 C 80.101562 -25.527344 76.132812 -31.300781 70.628906 -35.269531 C 73.695312 -38.878906 75.589844 -43.027344 75.589844 -47.085938 C 75.589844 -56.648438 71.171875 -63.140625 56.828125 -63.140625 L 1.804688 -63.140625 Z M 25.257812 -40.953125 L 25.257812 -47.808594 L 46.90625 -47.808594 C 49.25 -47.808594 52.136719 -47.808594 52.136719 -44.378906 C 52.136719 -40.953125 49.25 -40.953125 46.90625 -40.953125 Z M 25.257812 -17.136719 L 25.257812 -23.8125 L 51.414062 -23.8125 C 53.761719 -23.8125 56.648438 -23.8125 56.648438 -20.476562 C 56.648438 -17.136719 53.761719 -17.136719 51.414062 -17.136719 Z M 25.257812 -17.136719 "/></g></g></g><g fill="#010101" fill-opacity="1"><g transform="translate(80.99837, 98.221497)"><g><path d="M 24.355469 22.550781 L 47.808594 22.550781 L 78.566406 -54.121094 L 55.113281 -54.121094 L 40.050781 -16.507812 L 24.355469 -54.121094 L 0.902344 -54.121094 L 23.453125 0 L 33.375 0 Z M 24.355469 22.550781 "/></g></g></g><g fill="#010101" fill-opacity="1"><g transform="translate(160.463366, 98.221497)"><g><path d="M 36.894531 0.902344 C 44.019531 0.902344 50.421875 0.449219 55.566406 -0.449219 L 55.566406 -18.039062 C 49.339844 -17.136719 46.636719 -17.136719 41.765625 -17.136719 C 35.449219 -17.136719 33.464844 -19.753906 33.464844 -24.894531 L 33.464844 -36.082031 L 55.566406 -36.082031 L 55.566406 -54.121094 L 33.464844 -54.121094 L 33.464844 -68.554688 L 11.816406 -63.140625 L 11.816406 -54.121094 L 0.902344 -54.121094 L 0.902344 -36.082031 L 11.816406 -36.082031 L 11.816406 -15.964844 C 11.816406 -4.238281 20.113281 0.902344 36.894531 0.902344 Z M 36.894531 0.902344 "/></g></g></g><g fill="#010101" fill-opacity="1"><g transform="translate(216.927698, 98.221497)"><g><path d="M 36.800781 0.902344 C 59.082031 0.902344 70.71875 -5.953125 73.425781 -20.296875 L 52.226562 -20.296875 C 47.808594 -16.777344 44.648438 -16.238281 36.800781 -16.238281 C 30.847656 -16.238281 24.804688 -17.679688 23 -23.453125 L 74.328125 -23.453125 C 74.328125 -47.085938 59.984375 -55.023438 37.703125 -55.023438 C 15.605469 -55.023438 0.902344 -47.085938 0.902344 -27.0625 C 0.902344 -7.035156 15.605469 0.902344 36.800781 0.902344 Z M 23.992188 -34.277344 C 26.429688 -39.148438 31.839844 -39.6875 37.613281 -39.6875 C 43.386719 -39.6875 48.800781 -39.148438 51.234375 -34.277344 Z M 23.992188 -34.277344 "/></g></g></g><g fill="#010101" fill-opacity="1"><g transform="translate(292.153344, 98.221497)"><g><path d="M 1.804688 0 L 25.257812 0 L 25.257812 -37.253906 L 52.496094 0 L 83.167969 0 L 83.167969 -63.140625 L 59.714844 -63.140625 L 59.714844 -25.886719 L 32.472656 -63.140625 L 1.804688 -63.140625 Z M 1.804688 0 "/></g></g></g><g fill="#010101" fill-opacity="1"><g transform="translate(377.120437, 98.221497)"><g><path d="M 36.800781 0.902344 C 59.082031 0.902344 70.71875 -5.953125 73.425781 -20.296875 L 52.226562 -20.296875 C 47.808594 -16.777344 44.648438 -16.238281 36.800781 -16.238281 C 30.847656 -16.238281 24.804688 -17.679688 23 -23.453125 L 74.328125 -23.453125 C 74.328125 -47.085938 59.984375 -55.023438 37.703125 -55.023438 C 15.605469 -55.023438 0.902344 -47.085938 0.902344 -27.0625 C 0.902344 -7.035156 15.605469 0.902344 36.800781 0.902344 Z M 23.992188 -34.277344 C 26.429688 -39.148438 31.839844 -39.6875 37.613281 -39.6875 C 43.386719 -39.6875 48.800781 -39.148438 51.234375 -34.277344 Z M 23.992188 -34.277344 "/></g></g></g><g fill="#010101" fill-opacity="1"><g transform="translate(452.346104, 98.221497)"><g><path d="M 0.902344 0 L 28.863281 0 L 41.132812 -15.785156 L 53.398438 0 L 81.363281 0 L 56.46875 -27.0625 L 81.363281 -54.121094 L 53.398438 -54.121094 L 41.132812 -38.335938 L 28.863281 -54.121094 L 0.902344 -54.121094 L 25.796875 -27.0625 Z M 0.902344 0 "/></g></g></g><g fill="#010101" fill-opacity="1"><g transform="translate(534.607273, 98.221497)"><g><path d="M 36.894531 0.902344 C 44.019531 0.902344 50.421875 0.449219 55.566406 -0.449219 L 55.566406 -18.039062 C 49.339844 -17.136719 46.636719 -17.136719 41.765625 -17.136719 C 35.449219 -17.136719 33.464844 -19.753906 33.464844 -24.894531 L 33.464844 -36.082031 L 55.566406 -36.082031 L 55.566406 -54.121094 L 33.464844 -54.121094 L 33.464844 -68.554688 L 11.816406 -63.140625 L 11.816406 -54.121094 L 0.902344 -54.121094 L 0.902344 -36.082031 L 11.816406 -36.082031 L 11.816406 -15.964844 C 11.816406 -4.238281 20.113281 0.902344 36.894531 0.902344 Z M 36.894531 0.902344 "/></g></g></g><g fill="#010101" fill-opacity="1"><g transform="translate(267.672645, 149.900382)"><g><path d="M 14.28125 -34.546875 L 1.71875 -34.546875 L 1.71875 -38.265625 L 30.84375 -38.265625 L 30.84375 -34.546875 L 18.28125 -34.546875 L 18.28125 0 L 14.28125 0 Z M 14.28125 -34.546875 "/></g></g></g><g fill="#010101" fill-opacity="1"><g transform="translate(299.938569, 149.900382)"><g><path d="M 16.109375 0.578125 C 14.085938 0.578125 12.25 0.234375 10.59375 -0.453125 C 8.9375 -1.140625 7.515625 -2.09375 6.328125 -3.3125 C 5.148438 -4.53125 4.226562 -5.976562 3.5625 -7.65625 C 2.894531 -9.332031 2.5625 -11.160156 2.5625 -13.140625 C 2.5625 -15.117188 2.882812 -16.941406 3.53125 -18.609375 C 4.1875 -20.285156 5.082031 -21.734375 6.21875 -22.953125 C 7.363281 -24.171875 8.722656 -25.125 10.296875 -25.8125 C 11.878906 -26.5 13.625 -26.84375 15.53125 -26.84375 C 17.320312 -26.84375 18.976562 -26.523438 20.5 -25.890625 C 22.019531 -25.265625 23.332031 -24.398438 24.4375 -23.296875 C 25.539062 -22.191406 26.40625 -20.859375 27.03125 -19.296875 C 27.664062 -17.742188 27.984375 -16.03125 27.984375 -14.15625 C 27.984375 -13.394531 27.925781 -12.710938 27.8125 -12.109375 L 6.515625 -12.109375 C 6.742188 -9.253906 7.742188 -7.015625 9.515625 -5.390625 C 11.285156 -3.773438 13.554688 -2.96875 16.328125 -2.96875 C 19.796875 -2.96875 22.691406 -4.300781 25.015625 -6.96875 L 27.40625 -4.96875 C 26.039062 -3.144531 24.382812 -1.765625 22.4375 -0.828125 C 20.5 0.109375 18.390625 0.578125 16.109375 0.578125 Z M 23.984375 -15.421875 C 23.679688 -17.929688 22.757812 -19.867188 21.21875 -21.234375 C 19.675781 -22.609375 17.742188 -23.296875 15.421875 -23.296875 C 13.023438 -23.296875 11.054688 -22.582031 9.515625 -21.15625 C 7.972656 -19.726562 7.007812 -17.816406 6.625 -15.421875 Z M 23.984375 -15.421875 "/></g></g></g><g fill="#010101" fill-opacity="1"><g transform="translate(329.920178, 149.900382)"><g><path d="M 15.984375 0.578125 C 14.117188 0.578125 12.378906 0.21875 10.765625 -0.5 C 9.148438 -1.226562 7.734375 -2.210938 6.515625 -3.453125 C 5.296875 -4.691406 4.332031 -6.140625 3.625 -7.796875 C 2.914062 -9.453125 2.5625 -11.234375 2.5625 -13.140625 C 2.5625 -15.003906 2.914062 -16.769531 3.625 -18.4375 C 4.332031 -20.113281 5.285156 -21.570312 6.484375 -22.8125 C 7.679688 -24.050781 9.085938 -25.03125 10.703125 -25.75 C 12.328125 -26.476562 14.070312 -26.84375 15.9375 -26.84375 C 18.101562 -26.84375 20.117188 -26.351562 21.984375 -25.375 C 23.847656 -24.40625 25.390625 -23.085938 26.609375 -21.421875 L 23.921875 -19.1875 C 22.929688 -20.519531 21.742188 -21.546875 20.359375 -22.265625 C 18.972656 -22.992188 17.476562 -23.359375 15.875 -23.359375 C 14.507812 -23.359375 13.253906 -23.097656 12.109375 -22.578125 C 10.960938 -22.066406 9.96875 -21.351562 9.125 -20.4375 C 8.289062 -19.53125 7.632812 -18.457031 7.15625 -17.21875 C 6.6875 -15.976562 6.453125 -14.632812 6.453125 -13.1875 C 6.453125 -11.707031 6.6875 -10.335938 7.15625 -9.078125 C 7.632812 -7.828125 8.300781 -6.742188 9.15625 -5.828125 C 10.019531 -4.910156 11.039062 -4.191406 12.21875 -3.671875 C 13.394531 -3.160156 14.691406 -2.90625 16.109375 -2.90625 C 17.785156 -2.90625 19.328125 -3.257812 20.734375 -3.96875 C 22.140625 -4.675781 23.335938 -5.695312 24.328125 -7.03125 L 26.78125 -5.03125 C 25.5625 -3.3125 24.019531 -1.945312 22.15625 -0.9375 C 20.289062 0.0703125 18.234375 0.578125 15.984375 0.578125 Z M 15.984375 0.578125 "/></g></g></g><g fill="#010101" fill-opacity="1"><g transform="translate(358.416965, 149.900382)"><g><path d="M 4 -40.546875 L 7.703125 -40.546875 L 7.703125 -22.21875 C 9.796875 -25.300781 12.519531 -26.84375 15.875 -26.84375 C 17.28125 -26.84375 18.59375 -26.578125 19.8125 -26.046875 C 21.03125 -25.515625 22.066406 -24.769531 22.921875 -23.8125 C 23.785156 -22.863281 24.460938 -21.734375 24.953125 -20.421875 C 25.453125 -19.109375 25.703125 -17.6875 25.703125 -16.15625 L 25.703125 0 L 21.984375 0 L 21.984375 -15.640625 C 21.984375 -18.046875 21.34375 -19.941406 20.0625 -21.328125 C 18.789062 -22.722656 17.070312 -23.421875 14.90625 -23.421875 C 12.738281 -23.421875 10.992188 -22.703125 9.671875 -21.265625 C 8.359375 -19.835938 7.703125 -17.960938 7.703125 -15.640625 L 7.703125 0 L 4 0 Z M 4 -40.546875 "/></g></g></g><g fill="#010101" fill-opacity="1"><g transform="translate(387.541945, 149.900382)"><g><path d="M 4 -26.265625 L 7.703125 -26.265625 L 7.703125 -22.21875 C 9.796875 -25.300781 12.519531 -26.84375 15.875 -26.84375 C 17.28125 -26.84375 18.59375 -26.578125 19.8125 -26.046875 C 21.03125 -25.515625 22.066406 -24.769531 22.921875 -23.8125 C 23.785156 -22.863281 24.460938 -21.734375 24.953125 -20.421875 C 25.453125 -19.109375 25.703125 -17.6875 25.703125 -16.15625 L 25.703125 0 L 21.984375 0 L 21.984375 -15.640625 C 21.984375 -18.046875 21.34375 -19.941406 20.0625 -21.328125 C 18.789062 -22.722656 17.070312 -23.421875 14.90625 -23.421875 C 12.738281 -23.421875 10.992188 -22.703125 9.671875 -21.265625 C 8.359375 -19.835938 7.703125 -17.960938 7.703125 -15.640625 L 7.703125 0 L 4 0 Z M 4 -26.265625 "/></g></g></g><g fill="#010101" fill-opacity="1"><g transform="translate(416.666924, 149.900382)"><g><path d="M 15.984375 0.578125 C 14.117188 0.578125 12.378906 0.21875 10.765625 -0.5 C 9.148438 -1.226562 7.734375 -2.210938 6.515625 -3.453125 C 5.296875 -4.691406 4.332031 -6.140625 3.625 -7.796875 C 2.914062 -9.453125 2.5625 -11.234375 2.5625 -13.140625 C 2.5625 -15.003906 2.914062 -16.769531 3.625 -18.4375 C 4.332031 -20.113281 5.296875 -21.570312 6.515625 -22.8125 C 7.734375 -24.050781 9.148438 -25.03125 10.765625 -25.75 C 12.378906 -26.476562 14.117188 -26.84375 15.984375 -26.84375 C 17.847656 -26.84375 19.585938 -26.476562 21.203125 -25.75 C 22.828125 -25.03125 24.25 -24.050781 25.46875 -22.8125 C 26.6875 -21.570312 27.644531 -20.125 28.34375 -18.46875 C 29.050781 -16.8125 29.40625 -15.035156 29.40625 -13.140625 C 29.40625 -11.234375 29.050781 -9.453125 28.34375 -7.796875 C 27.644531 -6.140625 26.6875 -4.691406 25.46875 -3.453125 C 24.25 -2.210938 22.828125 -1.226562 21.203125 -0.5 C 19.585938 0.21875 17.847656 0.578125 15.984375 0.578125 Z M 15.984375 -2.90625 C 17.359375 -2.90625 18.625 -3.160156 19.78125 -3.671875 C 20.945312 -4.191406 21.957031 -4.910156 22.8125 -5.828125 C 23.664062 -6.742188 24.332031 -7.816406 24.8125 -9.046875 C 25.289062 -10.285156 25.53125 -11.648438 25.53125 -13.140625 C 25.53125 -14.617188 25.289062 -15.976562 24.8125 -17.21875 C 24.332031 -18.457031 23.664062 -19.53125 22.8125 -20.4375 C 21.957031 -21.351562 20.945312 -22.066406 19.78125 -22.578125 C 18.625 -23.097656 17.359375 -23.359375 15.984375 -23.359375 C 14.617188 -23.359375 13.351562 -23.097656 12.1875 -22.578125 C 11.03125 -22.066406 10.019531 -21.351562 9.15625 -20.4375 C 8.300781 -19.53125 7.632812 -18.457031 7.15625 -17.21875 C 6.6875 -15.976562 6.453125 -14.617188 6.453125 -13.140625 C 6.453125 -11.648438 6.6875 -10.285156 7.15625 -9.046875 C 7.632812 -7.816406 8.300781 -6.742188 9.15625 -5.828125 C 10.019531 -4.910156 11.03125 -4.191406 12.1875 -3.671875 C 13.351562 -3.160156 14.617188 -2.90625 15.984375 -2.90625 Z M 15.984375 -2.90625 "/></g></g></g><g fill="#010101" fill-opacity="1"><g transform="translate(448.361763, 149.900382)"><g><path d="M 4 -40.546875 L 7.703125 -40.546875 L 7.703125 0 L 4 0 Z M 4 -40.546875 "/></g></g></g><g fill="#010101" fill-opacity="1"><g transform="translate(459.783302, 149.900382)"><g><path d="M 15.984375 0.578125 C 14.117188 0.578125 12.378906 0.21875 10.765625 -0.5 C 9.148438 -1.226562 7.734375 -2.210938 6.515625 -3.453125 C 5.296875 -4.691406 4.332031 -6.140625 3.625 -7.796875 C 2.914062 -9.453125 2.5625 -11.234375 2.5625 -13.140625 C 2.5625 -15.003906 2.914062 -16.769531 3.625 -18.4375 C 4.332031 -20.113281 5.296875 -21.570312 6.515625 -22.8125 C 7.734375 -24.050781 9.148438 -25.03125 10.765625 -25.75 C 12.378906 -26.476562 14.117188 -26.84375 15.984375 -26.84375 C 17.847656 -26.84375 19.585938 -26.476562 21.203125 -25.75 C 22.828125 -25.03125 24.25 -24.050781 25.46875 -22.8125 C 26.6875 -21.570312 27.644531 -20.125 28.34375 -18.46875 C 29.050781 -16.8125 29.40625 -15.035156 29.40625 -13.140625 C 29.40625 -11.234375 29.050781 -9.453125 28.34375 -7.796875 C 27.644531 -6.140625 26.6875 -4.691406 25.46875 -3.453125 C 24.25 -2.210938 22.828125 -1.226562 21.203125 -0.5 C 19.585938 0.21875 17.847656 0.578125 15.984375 0.578125 Z M 15.984375 -2.90625 C 17.359375 -2.90625 18.625 -3.160156 19.78125 -3.671875 C 20.945312 -4.191406 21.957031 -4.910156 22.8125 -5.828125 C 23.664062 -6.742188 24.332031 -7.816406 24.8125 -9.046875 C 25.289062 -10.285156 25.53125 -11.648438 25.53125 -13.140625 C 25.53125 -14.617188 25.289062 -15.976562 24.8125 -17.21875 C 24.332031 -18.457031 23.664062 -19.53125 22.8125 -20.4375 C 21.957031 -21.351562 20.945312 -22.066406 19.78125 -22.578125 C 18.625 -23.097656 17.359375 -23.359375 15.984375 -23.359375 C 14.617188 -23.359375 13.351562 -23.097656 12.1875 -22.578125 C 11.03125 -22.066406 10.019531 -21.351562 9.15625 -20.4375 C 8.300781 -19.53125 7.632812 -18.457031 7.15625 -17.21875 C 6.6875 -15.976562 6.453125 -14.617188 6.453125 -13.140625 C 6.453125 -11.648438 6.6875 -10.285156 7.15625 -9.046875 C 7.632812 -7.816406 8.300781 -6.742188 9.15625 -5.828125 C 10.019531 -4.910156 11.03125 -4.191406 12.1875 -3.671875 C 13.351562 -3.160156 14.617188 -2.90625 15.984375 -2.90625 Z M 15.984375 -2.90625 "/></g></g></g><g fill="#010101" fill-opacity="1"><g transform="translate(491.478142, 149.900382)"><g><path d="M 15.1875 10.96875 C 17.96875 10.96875 20.128906 10.488281 21.671875 9.53125 C 23.210938 8.582031 23.984375 7.253906 23.984375 5.546875 C 23.984375 3.867188 23.226562 2.550781 21.71875 1.59375 C 20.21875 0.644531 18.0625 0.171875 15.25 0.171875 C 12.507812 0.171875 10.375 0.632812 8.84375 1.5625 C 7.320312 2.5 6.5625 3.828125 6.5625 5.546875 C 6.5625 7.253906 7.3125 8.582031 8.8125 9.53125 C 10.320312 10.488281 12.445312 10.96875 15.1875 10.96875 Z M 14.5625 -10.453125 C 16.726562 -10.453125 18.457031 -11.050781 19.75 -12.25 C 21.050781 -13.445312 21.703125 -15.035156 21.703125 -17.015625 C 21.703125 -18.992188 21.050781 -20.570312 19.75 -21.75 C 18.457031 -22.9375 16.726562 -23.53125 14.5625 -23.53125 C 12.394531 -23.53125 10.660156 -22.9375 9.359375 -21.75 C 8.066406 -20.570312 7.421875 -18.992188 7.421875 -17.015625 C 7.421875 -14.992188 8.066406 -13.394531 9.359375 -12.21875 C 10.660156 -11.039062 12.394531 -10.453125 14.5625 -10.453125 Z M 15.1875 14.28125 C 13.320312 14.28125 11.628906 14.066406 10.109375 13.640625 C 8.585938 13.222656 7.289062 12.644531 6.21875 11.90625 C 5.15625 11.164062 4.328125 10.269531 3.734375 9.21875 C 3.148438 8.175781 2.859375 7.003906 2.859375 5.703125 C 2.859375 4.148438 3.265625 2.8125 4.078125 1.6875 C 4.898438 0.5625 6.070312 -0.34375 7.59375 -1.03125 C 6.375 -1.445312 5.421875 -2.054688 4.734375 -2.859375 C 4.054688 -3.660156 3.71875 -4.570312 3.71875 -5.59375 C 3.71875 -6.507812 3.984375 -7.347656 4.515625 -8.109375 C 5.046875 -8.867188 5.769531 -9.476562 6.6875 -9.9375 C 5.726562 -10.8125 4.992188 -11.847656 4.484375 -13.046875 C 3.972656 -14.242188 3.71875 -15.566406 3.71875 -17.015625 C 3.71875 -18.460938 3.984375 -19.785156 4.515625 -20.984375 C 5.046875 -22.179688 5.796875 -23.21875 6.765625 -24.09375 C 7.734375 -24.96875 8.882812 -25.644531 10.21875 -26.125 C 11.550781 -26.601562 13.035156 -26.84375 14.671875 -26.84375 C 16.085938 -26.84375 17.363281 -26.648438 18.5 -26.265625 L 27.703125 -26.265625 L 27.703125 -22.953125 L 23.46875 -22.953125 C 24.757812 -21.316406 25.40625 -19.335938 25.40625 -17.015625 C 25.40625 -15.566406 25.140625 -14.234375 24.609375 -13.015625 C 24.078125 -11.796875 23.332031 -10.75 22.375 -9.875 C 21.425781 -9 20.285156 -8.320312 18.953125 -7.84375 C 17.628906 -7.375 16.164062 -7.140625 14.5625 -7.140625 C 12.625 -7.140625 10.875 -7.5 9.3125 -8.21875 C 8.664062 -8.101562 8.171875 -7.835938 7.828125 -7.421875 C 7.484375 -7.003906 7.3125 -6.507812 7.3125 -5.9375 C 7.3125 -5.019531 7.765625 -4.320312 8.671875 -3.84375 C 9.585938 -3.375 10.847656 -3.140625 12.453125 -3.140625 L 16.21875 -3.140625 C 19.800781 -3.140625 22.609375 -2.378906 24.640625 -0.859375 C 26.679688 0.660156 27.703125 2.71875 27.703125 5.3125 C 27.703125 6.675781 27.40625 7.910156 26.8125 9.015625 C 26.21875 10.117188 25.367188 11.0625 24.265625 11.84375 C 23.160156 12.625 21.835938 13.222656 20.296875 13.640625 C 18.753906 14.066406 17.050781 14.28125 15.1875 14.28125 Z M 15.1875 14.28125 "/></g></g></g><g fill="#010101" fill-opacity="1"><g transform="translate(520.888666, 149.900382)"><g><path d="M 4 -26.265625 L 7.703125 -26.265625 L 7.703125 0 L 4 0 Z M 5.828125 -31.640625 C 5.066406 -31.640625 4.425781 -31.90625 3.90625 -32.4375 C 3.394531 -32.96875 3.140625 -33.613281 3.140625 -34.375 C 3.140625 -35.132812 3.40625 -35.78125 3.9375 -36.3125 C 4.46875 -36.851562 5.113281 -37.125 5.875 -37.125 C 6.644531 -37.125 7.285156 -36.851562 7.796875 -36.3125 C 8.304688 -35.78125 8.5625 -35.132812 8.5625 -34.375 C 8.5625 -33.613281 8.296875 -32.96875 7.765625 -32.4375 C 7.234375 -31.90625 6.585938 -31.640625 5.828125 -31.640625 Z M 5.828125 -31.640625 "/></g></g></g><g fill="#010101" fill-opacity="1"><g transform="translate(532.310205, 149.900382)"><g><path d="M 16.109375 0.578125 C 14.085938 0.578125 12.25 0.234375 10.59375 -0.453125 C 8.9375 -1.140625 7.515625 -2.09375 6.328125 -3.3125 C 5.148438 -4.53125 4.226562 -5.976562 3.5625 -7.65625 C 2.894531 -9.332031 2.5625 -11.160156 2.5625 -13.140625 C 2.5625 -15.117188 2.882812 -16.941406 3.53125 -18.609375 C 4.1875 -20.285156 5.082031 -21.734375 6.21875 -22.953125 C 7.363281 -24.171875 8.722656 -25.125 10.296875 -25.8125 C 11.878906 -26.5 13.625 -26.84375 15.53125 -26.84375 C 17.320312 -26.84375 18.976562 -26.523438 20.5 -25.890625 C 22.019531 -25.265625 23.332031 -24.398438 24.4375 -23.296875 C 25.539062 -22.191406 26.40625 -20.859375 27.03125 -19.296875 C 27.664062 -17.742188 27.984375 -16.03125 27.984375 -14.15625 C 27.984375 -13.394531 27.925781 -12.710938 27.8125 -12.109375 L 6.515625 -12.109375 C 6.742188 -9.253906 7.742188 -7.015625 9.515625 -5.390625 C 11.285156 -3.773438 13.554688 -2.96875 16.328125 -2.96875 C 19.796875 -2.96875 22.691406 -4.300781 25.015625 -6.96875 L 27.40625 -4.96875 C 26.039062 -3.144531 24.382812 -1.765625 22.4375 -0.828125 C 20.5 0.109375 18.390625 0.578125 16.109375 0.578125 Z M 23.984375 -15.421875 C 23.679688 -17.929688 22.757812 -19.867188 21.21875 -21.234375 C 19.675781 -22.609375 17.742188 -23.296875 15.421875 -23.296875 C 13.023438 -23.296875 11.054688 -22.582031 9.515625 -21.15625 C 7.972656 -19.726562 7.007812 -17.816406 6.625 -15.421875 Z M 23.984375 -15.421875 "/></g></g></g><g fill="#010101" fill-opacity="1"><g transform="translate(562.291817, 149.900382)"><g><path d="M 13.078125 0.578125 C 10.796875 0.578125 8.710938 0.101562 6.828125 -0.84375 C 4.941406 -1.800781 3.332031 -3.253906 2 -5.203125 L 4.734375 -7.53125 C 6.910156 -4.300781 9.726562 -2.6875 13.1875 -2.6875 C 15.019531 -2.6875 16.476562 -3.078125 17.5625 -3.859375 C 18.644531 -4.640625 19.1875 -5.695312 19.1875 -7.03125 C 19.1875 -8.132812 18.71875 -9.015625 17.78125 -9.671875 C 16.851562 -10.335938 15.304688 -10.957031 13.140625 -11.53125 C 9.859375 -12.375 7.472656 -13.429688 5.984375 -14.703125 C 4.503906 -15.984375 3.765625 -17.59375 3.765625 -19.53125 C 3.765625 -21.738281 4.582031 -23.507812 6.21875 -24.84375 C 7.863281 -26.175781 10.035156 -26.84375 12.734375 -26.84375 C 14.785156 -26.84375 16.660156 -26.429688 18.359375 -25.609375 C 20.054688 -24.796875 21.515625 -23.585938 22.734375 -21.984375 L 19.984375 -19.703125 C 18.160156 -22.296875 15.707031 -23.59375 12.625 -23.59375 C 11.019531 -23.59375 9.757812 -23.257812 8.84375 -22.59375 C 7.9375 -21.925781 7.484375 -21 7.484375 -19.8125 C 7.484375 -18.707031 7.945312 -17.8125 8.875 -17.125 C 9.8125 -16.445312 11.382812 -15.84375 13.59375 -15.3125 C 16.832031 -14.507812 19.191406 -13.46875 20.671875 -12.1875 C 22.160156 -10.914062 22.90625 -9.289062 22.90625 -7.3125 C 22.90625 -6.132812 22.664062 -5.054688 22.1875 -4.078125 C 21.707031 -3.109375 21.03125 -2.28125 20.15625 -1.59375 C 19.28125 -0.914062 18.242188 -0.382812 17.046875 0 C 15.847656 0.382812 14.523438 0.578125 13.078125 0.578125 Z M 13.078125 0.578125 "/></g></g></g></svg>